<svg version="1.2" xmlns="http://www.w3.org/2000/svg" viewBox="0 0 800 800" width="800" height="800">
	<title>wordpress</title>
	<style>
		.s0 { fill: #028cb0 } 
		.s1 { fill: #ffffff } 
	</style>
	<path fill-rule="evenodd" class="s0" d="m399.5 793c-217.6 0-393.5-175.9-393.5-393.5 0-217.6 175.9-393.5 393.5-393.5 217.6 0 393.5 175.9 393.5 393.5 0 217.6-175.9 393.5-393.5 393.5z"/>
	<path class="s1" d="m399.5 708.7c-82 0-160.6-32.6-218.6-90.6-58-58-90.6-136.6-90.6-218.6 0-82 32.6-160.6 90.6-218.6 58-58 136.6-90.6 218.6-90.6 82 0 160.6 32.6 218.6 90.6 58 58 90.6 136.6 90.6 218.6 0 82-32.6 160.6-90.6 218.6-58 58-136.6 90.6-218.6 90.6zm0-40.9c31.2 0 61.1-5.5 89.2-15.2l-1.9-3.6-82.5-226-80.4 233.8c23.8 7.2 49.2 11 75.6 11zm36.9-394.1l97 288.5 26.9-89.4c11.4-37.1 20.2-63.8 20.2-86.9 0-33.3-11.9-56.1-21.9-73.7-13.8-22.3-26.4-41.1-26.4-63 0-24.7 18.6-47.6 45.2-47.6h3.3c-49.4-45.4-114.1-70.5-181.2-70.4-44.4 0-88.2 11.1-127.3 32.1-39.1 21.1-72.3 51.6-96.7 88.7l17.1 0.5c28.1 0 71.3-3.5 71.3-3.5 14.8-0.8 16.4 20.4 1.9 22.1 0 0-14.5 1.9-30.9 2.6l98 290.6 58.8-176-41.9-114.6q-14.1-0.8-28.1-2.4c-14.5-0.9-12.8-23.1 1.7-22.3 0 0 44.2 3.5 70.6 3.5 28.1 0 71.4-3.5 71.4-3.5 14.5-0.8 16.4 20.4 1.9 22.1 0 0-14.5 1.6-30.9 2.6zm97.9 357.7c40.6-23.6 74.3-57.5 97.7-98.1 23.4-40.7 35.8-86.9 35.8-133.8 0-46.6-11.9-90.4-32.8-128.7 4.2 42.2-2.2 84.7-18.6 123.7zm-403.1-231.9c0 106.3 61.8 197.9 151.2 241.4l-127.9-350.5c-15.4 34.3-23.3 71.5-23.3 109.1z"/>
</svg>